<?xml version="1.0" encoding="utf-8"?>
<!-- Generator: Adobe Illustrator 26.5.0, SVG Export Plug-In . SVG Version: 6.00 Build 0)  -->
<svg version="1.0" id="katman_1" xmlns="http://www.w3.org/2000/svg" xmlns:xlink="http://www.w3.org/1999/xlink" x="0px" y="0px"
	 viewBox="0 0 624 420" style="enable-background:new 0 0 624 420;" xml:space="preserve">
<style type="text/css">
	.st0{fill:#0090DA; fill-opacity: 0.3;}
</style>
<g>
	<path class="st0" d="M308.22,252.18c-24.07,0-45.66-13.67-45.66-32.78c0-19.12,21.59-32.8,45.83-32.8
		c10.54,0,20.38,2.66,31.08,8.63l-7.54,9.69c-6.86-3.32-14.94-5.31-23.54-5.31c-10.19,0-21.95,5.7-21.95,19.78
		c0,14.07,11.59,19.78,21.95,19.78c8.6,0,16.85-1.73,23.88-4.79l7.56,10.22c-8.39,4.49-18.49,7.21-29.41,7.53L308.22,252.18z
		 M445.68,251.94c24.23,0,45.83-13.68,45.83-32.78c0-19.12-21.6-32.81-45.83-32.81c-24.24,0-45.84,13.68-45.84,32.81
		c0,18.72,20.75,32.23,44.39,32.76L445.68,251.94z M467.63,219.16c0,14.07-11.76,19.77-21.95,19.77c-10.19,0-21.95-5.7-21.95-19.77
		c0-14.08,11.76-19.79,21.95-19.79C455.87,199.37,467.63,205.08,467.63,219.16z M501.27,250.35h22.63v-39.04
		c0-5.27,4.1-11.47,11.42-11.52c5.12,0.05,10.02,3.54,10.02,7.99l-0.04,42.57H568v-43.77c0-11.53-12.36-21.15-27.11-21.15
		l-0.43,0.02l0,0l-0.43-0.02l0,0c-6.09,0-11.87,1.78-16.6,4.76l-0.04-0.1c-0.3-0.66-2.8-4.26-22.13-4.26V250.35z M229.5,187.96
		h22.17v62.4H229.5V187.96z M350.4,250.35h22.18v-37.84c0-5.98,7.02-10.76,14.58-10.76c3.23,0,6.3,0.56,8.96,1.57l1.12,0.46v-16.41
		c-2.61-0.4-5.44-0.61-7.94-0.61c-5.94,0-11.9,1.73-16.79,4.62l-0.08-0.15c-0.63-0.96-4.05-4.07-22.03-4.07V250.35z"/>
	<path class="st0" d="M154.84,162.47c1.84-0.77,2.02,0.48,1,1.26c-1.05,0.8-2.29,1.72-3.8,2.64c-6.65,4.03-13.41,8.96-20.35,14.48
		c3.07,1.9,5.63,4.55,7.43,7.68l0.64,1.2l9.5,20.16c0.98,1.97,2.8,3.06,4.92,3.06c1.88,0,3.52-0.86,4.55-2.43l0.36-0.62l9.5-20.16
		c3.56-7.18,11.01-12.15,19.57-12.15c8.66,0,16.11,5.04,19.62,12.34c0.36,0.87,0.41,1.66-0.24,2.6c-4.74,6.85-10.83,13.91-17.92,21
		l-2.4,2.36l0-12.36l-4.99,10.63c-5.48,11.74-15.41,18.76-28.04,18.76c-12.18,0-21.85-6.52-27.44-17.52l-0.6-1.24l-4.99-10.63
		l0,48.46c-8.03,4.46-15.04,7.74-21.08,9.93l-1.62,0.57v-52.24c-22.53,22.5-34.98,42.43-27.39,52.73
		c8.59,11.66,31.59,5.26,65.64-16.22l1.87-1.19c1.49-0.95,2.87-1.78,4.04-2.4c1.14-0.6,2.2,0.09,0.73,1.43
		c-0.89,0.82-2.12,1.77-3.51,2.72c-4.94,3.37-9.95,6.62-14.94,9.66l-3.73,2.24l0,23.54H98.44V271c-18.34,7.97-33.66,10.1-40.12,0.85
		c-8.65-12.4,7.47-39.98,38.5-68.08l1.62-1.45v-3c0-12.03,9.72-21.76,21.75-21.76c2.77,0,5.42,0.53,7.87,1.47l2.4-1.65l0,0
		c6.64-4.53,13.59-8.75,20.38-12.87C152.28,163.64,153.73,162.93,154.84,162.47z M167.86,154.81l0.89-0.45
		c33.89-17.9,60.04-22.79,68.46-10.74c7.9,11.32-1.9,34.61-25.88,59.83l-1.43,1.49v45.42H187.2l0-24.87
		c-4.9,3.92-10.1,7.82-15.6,11.67l-4.15,2.88c-5.14,3.56-11.15,7.64-15.96,10.66l-2.48,1.52l0,0l-0.49,0.29
		c-1.44,0.88-2.8,1.6-3.9,2.07c-1.83,0.78-2.02-0.47-1.01-1.26c1.04-0.81,2.37-1.71,3.85-2.68l1.12-0.7l0,0
		c5.62-3.37,14.24-9.44,19.83-13.58c41.86-31.05,66.03-73.03,54.23-85.84c-7.57-8.21-26.65-6.34-51.21,4.98l-1.76,0.82
		c-1.59,0.78-3.01,1.32-4.24,1.77c-1.21,0.44-2.17-0.39-0.53-1.53C165.69,156.02,166.71,155.41,167.86,154.81z"/>
</g>
</svg>
